<svg width="25" height="25" viewBox="0 0 9 9" fill="none" xmlns="http://www.w3.org/2000/svg">
<path d="M4.36214 0.422683C4.42379 0.232957 4.6922 0.232958 4.75384 0.422683L5.62138 3.09268C5.64895 3.17753 5.72801 3.23497 5.81723 3.23497H8.62463C8.82412 3.23497 8.90706 3.49025 8.74567 3.6075L6.47444 5.25765C6.40226 5.31009 6.37206 5.40304 6.39963 5.48789L7.26716 8.15788C7.32881 8.34761 7.11166 8.50538 6.95027 8.38812L4.67904 6.73797C4.60686 6.68553 4.50913 6.68553 4.43695 6.73797L2.16572 8.38812C2.00433 8.50538 1.78718 8.34761 1.84882 8.15788L2.71636 5.48789C2.74393 5.40304 2.71372 5.31009 2.64155 5.25765L0.370315 3.6075C0.208925 3.49025 0.291869 3.23497 0.491358 3.23497H3.29876C3.38797 3.23497 3.46704 3.17753 3.49461 3.09268L4.36214 0.422683Z" fill="#F1CC4A"/>
</svg>
